<svg id="圖層_1" data-name="圖層 1" xmlns="http://www.w3.org/2000/svg" viewBox="0 0 145.48 25.7"><title>LOGO</title><path d="M15,1.89a10.69,10.69,0,0,1,4.11.71,7.61,7.61,0,0,1,2.75,1.85A7.16,7.16,0,0,1,23.4,7.08a9.93,9.93,0,0,1,0,6.1,7.16,7.16,0,0,1-1.55,2.65,7.74,7.74,0,0,1-2.75,1.85,10.7,10.7,0,0,1-4.11.7H9.05V27.6H3.4V1.89ZM13.44,14a12.69,12.69,0,0,0,1.88-.14,4.56,4.56,0,0,0,1.58-.56A3.18,3.18,0,0,0,18,12.12a4.22,4.22,0,0,0,.41-2,4.16,4.16,0,0,0-.41-2A3,3,0,0,0,16.9,7a4.36,4.36,0,0,0-1.58-.56,11.47,11.47,0,0,0-1.88-.14H9.05V14Z" transform="translate(-3.4 -1.89)"/><path d="M46.64,1.89V6.65H33.06v5.5H45.52v4.4H33.06v6.3H46.92V27.6H27.41V1.89Z" transform="translate(-3.4 -1.89)"/><path d="M56.35,1.89,67.08,19.14h.07V1.89h5.3V27.6H66.79L56.1,10.39H56V27.6H50.74V1.89Z" transform="translate(-3.4 -1.89)"/><path d="M83.07,1.89V12.55l10-10.66h7.06l-10,10.16,11,15.55H94.05L86.31,16l-3.24,3.28V27.6H77.42V1.89Z" transform="translate(-3.4 -1.89)"/><path d="M122.63,1.89V6.65H109.06v5.5h12.45v4.4H109.06v6.3h13.86V27.6H103.41V1.89Z" transform="translate(-3.4 -1.89)"/><path d="M140.59,1.89a8.34,8.34,0,0,1,3.12.56A7.28,7.28,0,0,1,146.08,4a6.73,6.73,0,0,1,1.52,2.25A7.37,7.37,0,0,1,148.12,9a7.67,7.67,0,0,1-1,3.92,6,6,0,0,1-3.11,2.52v.07a4.42,4.42,0,0,1,1.73.88,4.92,4.92,0,0,1,1.11,1.41,6.37,6.37,0,0,1,.63,1.78,13.11,13.11,0,0,1,.27,1.94c0,.41.05.89.08,1.44s.06,1.12.12,1.7a11.51,11.51,0,0,0,.29,1.63,3.81,3.81,0,0,0,.59,1.32h-5.65a10,10,0,0,1-.57-2.92c-.08-1.13-.18-2.21-.33-3.24a5.14,5.14,0,0,0-1.22-3,4.24,4.24,0,0,0-3.06-.94h-5.65V27.6h-5.66V1.89Zm-2,11.63a4.29,4.29,0,0,0,2.91-.86,3.59,3.59,0,0,0,1-2.81,3.43,3.43,0,0,0-1-2.72,4.34,4.34,0,0,0-2.91-.84h-6.19v7.23Z" transform="translate(-3.4 -1.89)"/></svg>