<?xml version="1.0" encoding="UTF-8" standalone="no"?>
<svg
   aria-hidden="true"
   focusable="false"
   data-prefix="fab"
   data-icon="instagram"
   class="svg-inline--fa fa-instagram fa-w-14"
   role="img"
   viewBox="0 0 500 500"
   version="1.1"
   id="svg4"
   sodipodi:docname="instagram.svg"
   width="500"
   height="500"
   inkscape:version="1.1 (c68e22c387, 2021-05-23)"
   inkscape:export-filename="C:\Users\User\AndroidStudioProjects\links\assets\logo\instagram.png"
   inkscape:export-xdpi="72"
   inkscape:export-ydpi="72"
   xmlns:inkscape="http://www.inkscape.org/namespaces/inkscape"
   xmlns:sodipodi="http://sodipodi.sourceforge.net/DTD/sodipodi-0.dtd"
   xmlns:xlink="http://www.w3.org/1999/xlink"
   xmlns="http://www.w3.org/2000/svg"
   xmlns:svg="http://www.w3.org/2000/svg">
  <defs
     id="defs8" />
  <sodipodi:namedview
     id="namedview6"
     pagecolor="#ffffff"
     bordercolor="#666666"
     borderopacity="1.0"
     inkscape:pageshadow="2"
     inkscape:pageopacity="0.0"
     inkscape:pagecheckerboard="0"
     showgrid="false"
     inkscape:zoom="0.8125"
     inkscape:cx="446.76923"
     inkscape:cy="113.84615"
     inkscape:window-width="1920"
     inkscape:window-height="1017"
     inkscape:window-x="-8"
     inkscape:window-y="-8"
     inkscape:window-maximized="1"
     inkscape:current-layer="svg4" />
  <path
     fill="currentColor"
     d="m 250.02789,185.90316 c -35.47128,0 -64.08255,28.61765 -64.08255,64.09684 0,35.47919 28.61127,64.09684 64.08255,64.09684 35.47127,0 64.08254,-28.61765 64.08254,-64.09684 0,-35.47919 -28.61127,-64.09684 -64.08254,-64.09684 z m 0,105.76816 c -22.92248,0 -41.66202,-18.68794 -41.66202,-41.67132 0,-22.98338 18.68377,-41.67132 41.66202,-41.67132 22.97824,0 41.66202,18.68794 41.66202,41.67132 0,22.98338 -18.73955,41.67132 -41.66202,41.67132 z m 81.65086,-108.39005 c 0,8.31195 -6.69269,14.95035 -14.94702,14.95035 -8.31009,0 -14.94701,-6.69419 -14.94701,-14.95035 0,-8.25617 6.69269,-14.95035 14.94701,-14.95035 8.25433,0 14.94702,6.69418 14.94702,14.95035 z m 42.44283,15.17349 c -0.94813,-20.02678 -5.52147,-37.76637 -20.18962,-52.38202 -14.61238,-14.61564 -32.34802,-19.19 -52.37033,-20.19413 -20.63581,-1.17148 -82.48745,-1.17148 -103.12326,0 -19.96654,0.94835 -37.70217,5.52271 -52.37033,20.13835 -14.66815,14.61564 -19.18572,32.35524 -20.18962,52.38201 -1.17123,20.64041 -1.17123,82.50586 0,103.14627 0.94813,20.02678 5.52147,37.76637 20.18962,52.38202 14.66816,14.61564 32.34802,19.19 52.37033,20.19413 20.63581,1.17148 82.48745,1.17148 103.12326,0 20.02231,-0.94835 37.75795,-5.52271 52.37033,-20.19413 14.61238,-14.61565 19.18572,-32.35524 20.18962,-52.38202 1.17123,-20.64041 1.17123,-82.45007 0,-103.09048 z m -26.65923,125.23708 c -4.35025,10.93384 -12.77189,19.35736 -23.75906,23.76437 -16.45287,6.52683 -55.49359,5.02064 -73.6754,5.02064 -18.18182,0 -57.27831,1.45041 -73.67541,-5.02064 -10.9314,-4.35122 -19.35304,-12.77474 -23.75906,-23.76437 C 146.06804,307.2353 147.5739,268.18588 147.5739,250 c 0,-18.18588 -1.45009,-57.29109 5.01952,-73.69184 4.35025,-10.93384 12.77189,-19.35736 23.75906,-23.76437 16.45287,-6.52683 55.49359,-5.02064 73.67541,-5.02064 18.18181,0 57.2783,-1.45041 73.6754,5.02064 10.9314,4.35122 19.35304,12.77474 23.75906,23.76437 6.52538,16.45654 5.01952,55.50596 5.01952,73.69184 0,18.18588 1.50586,57.29109 -5.01952,73.69184 z"
     id="path2"
     style="opacity:0.65;stroke-width:0.557787" />
  <ellipse
     style="display:none;opacity:0.65;fill:#000000;fill-opacity:1;stroke-width:0.588246"
     id="path37683"
     cx="246.33563"
     cy="253.67479"
     inkscape:label="text path"
     rx="150.00056"
     ry="149.99944"
     transform="matrix(0.99989034,-0.01480876,0.01455162,0.99989412,0,0)" />
  <text
     xml:space="preserve"
     style="font-style:normal;font-variant:normal;font-weight:normal;font-stretch:normal;font-size:63.9649px;line-height:1.25;font-family:'Comic Sans MS';-inkscape-font-specification:'Comic Sans MS, Normal';font-variant-ligatures:normal;font-variant-caps:normal;font-variant-numeric:normal;font-variant-east-asian:normal;word-spacing:0px;display:inline;opacity:0.65;fill:#000000;fill-opacity:1;stroke:none;stroke-width:0.436123"
     id="text1948"
     inkscape:label="text"
     transform="rotate(-148.48455,246.83804,237.22307)"><textPath
       xlink:href="#path37683"
       id="textPath37731">Instagram</textPath></text>
</svg>
