<?xml version="1.0" encoding="UTF-8" standalone="no"?>
<svg
   aria-hidden="true"
   focusable="false"
   data-prefix="fab"
   data-icon="line"
   class="svg-inline--fa fa-line fa-w-14"
   role="img"
   viewBox="0 0 500 500"
   version="1.1"
   id="svg4"
   sodipodi:docname="line.svg"
   width="500"
   height="500"
   inkscape:version="1.1 (c68e22c387, 2021-05-23)"
   inkscape:export-filename="C:\Users\User\AndroidStudioProjects\links\assets\logo\line.png"
   inkscape:export-xdpi="72"
   inkscape:export-ydpi="72"
   xmlns:inkscape="http://www.inkscape.org/namespaces/inkscape"
   xmlns:sodipodi="http://sodipodi.sourceforge.net/DTD/sodipodi-0.dtd"
   xmlns:xlink="http://www.w3.org/1999/xlink"
   xmlns="http://www.w3.org/2000/svg"
   xmlns:svg="http://www.w3.org/2000/svg">
  <defs
     id="defs8" />
  <sodipodi:namedview
     id="namedview6"
     pagecolor="#ffffff"
     bordercolor="#666666"
     borderopacity="1.0"
     inkscape:pageshadow="2"
     inkscape:pageopacity="0.0"
     inkscape:pagecheckerboard="0"
     showgrid="false"
     inkscape:zoom="0.8125"
     inkscape:cx="492.30769"
     inkscape:cy="408"
     inkscape:window-width="1920"
     inkscape:window-height="1017"
     inkscape:window-x="-8"
     inkscape:window-y="-8"
     inkscape:window-maximized="1"
     inkscape:current-layer="svg4" />
  <path
     fill="currentColor"
     d="m 284.69418,233.40628 v 36.50219 c 0,0.92412 -0.71875,1.64286 -1.64286,1.64286 h -5.85267 c -0.56474,0 -1.07812,-0.30804 -1.33482,-0.66741 l -16.7366,-22.58926 v 21.66515 c 0,0.92411 -0.71875,1.64286 -1.64285,1.64286 h -5.85267 c -0.92411,0 -1.64286,-0.71875 -1.64286,-1.64286 v -36.5022 c 0,-0.9241 0.71875,-1.64285 1.64286,-1.64285 h 5.80132 c 0.5134,0 1.07813,0.2567 1.33482,0.71875 l 16.7366,22.58926 v -21.66516 c 0,-0.9241 0.71875,-1.64285 1.64285,-1.64285 h 5.85268 c 0.92411,-0.0513 1.6942,0.71875 1.6942,1.59152 z M 242.596,231.76342 h -5.85267 c -0.92411,0 -1.64285,0.71875 -1.64285,1.64286 v 36.50219 c 0,0.92412 0.71874,1.64286 1.64285,1.64286 h 5.85267 c 0.9241,0 1.64285,-0.71874 1.64285,-1.64286 v -36.50219 c 0,-0.87277 -0.71875,-1.64286 -1.64285,-1.64286 z m -14.11829,30.59818 h -15.9665 v -28.95532 c 0,-0.92411 -0.71875,-1.64286 -1.64286,-1.64286 h -5.85267 c -0.92411,0 -1.64286,0.71875 -1.64286,1.64286 v 36.50219 c 0,0.46206 0.15402,0.82144 0.46205,1.12947 0.30804,0.25669 0.66742,0.46205 1.12947,0.46205 h 23.46203 c 0.92411,0 1.64286,-0.71875 1.64286,-1.64286 v -5.85267 c 0,-0.87277 -0.71875,-1.64286 -1.59152,-1.64286 z m 87.02,-30.59818 h -23.46202 c -0.87277,0 -1.64286,0.71875 -1.64286,1.64286 v 36.50219 c 0,0.87277 0.71875,1.64286 1.64286,1.64286 h 23.46202 c 0.92411,0 1.64286,-0.71874 1.64286,-1.64286 v -5.85267 c 0,-0.92411 -0.71875,-1.64286 -1.64286,-1.64286 h -15.9665 v -6.1607 h 15.9665 c 0.92411,0 1.64286,-0.71875 1.64286,-1.64286 v -5.90402 c 0,-0.9241 -0.71875,-1.64285 -1.64286,-1.64285 h -15.9665 v -6.16071 h 15.9665 c 0.92411,0 1.64286,-0.71875 1.64286,-1.64285 v -5.85267 c -0.0513,-0.87277 -0.77009,-1.64286 -1.64286,-1.64286 z m 59.50219,-44.81916 v 146.47085 c -0.0513,22.99998 -18.89284,41.63613 -41.94417,41.58479 H 186.58489 c -22.99998,-0.0513 -41.63612,-18.94418 -41.58478,-41.94417 V 186.58489 c 0.0513,-22.99998 18.94418,-41.63612 41.94415,-41.58478 h 146.47085 c 22.99998,0.0513 41.63613,18.89284 41.58479,41.94415 z m -31.62498,62.94191 c 0,-37.47764 -37.58032,-67.97315 -83.7343,-67.97315 -46.15396,0 -83.7343,30.49551 -83.7343,67.97315 0,33.57586 29.77676,61.70977 70.02673,67.04904 9.8058,2.10492 8.67633,5.69867 6.46874,18.89285 -0.35937,2.10491 -1.69419,8.26561 7.23883,4.51784 8.93304,-3.74776 48.20755,-28.39059 65.81691,-48.61826 12.11606,-13.34819 17.91739,-26.85041 17.91739,-41.84147 z"
     id="path2"
     style="opacity:0.65;stroke-width:0.513392" />
  <ellipse
     style="display:none;opacity:0.65;fill:#000000;fill-opacity:1;stroke-width:0.784328"
     id="path37683"
     cx="246.33563"
     cy="253.67479"
     inkscape:label="text path"
     rx="200.00076"
     ry="199.99925"
     transform="matrix(0.99989034,-0.01480876,0.01455162,0.99989412,0,0)" />
  <text
     xml:space="preserve"
     style="font-style:normal;font-variant:normal;font-weight:normal;font-stretch:normal;font-size:63.9649px;line-height:1.25;font-family:'Comic Sans MS';-inkscape-font-specification:'Comic Sans MS, Normal';font-variant-ligatures:normal;font-variant-caps:normal;font-variant-numeric:normal;font-variant-east-asian:normal;word-spacing:0px;display:inline;opacity:0.65;fill:#000000;fill-opacity:1;stroke:none;stroke-width:0.436123"
     id="text1948"
     inkscape:label="text"
     transform="rotate(-140.47734,261.77185,276.59005)"><textPath
       xlink:href="#path37683"
       id="textPath37731">Line Sticker</textPath></text>
</svg>
