<?xml version="1.0" encoding="UTF-8" standalone="no"?>
<svg
   aria-hidden="true"
   focusable="false"
   data-prefix="fab"
   data-icon="spotify"
   class="svg-inline--fa fa-spotify fa-w-16"
   role="img"
   viewBox="0 0 500 500"
   version="1.1"
   id="svg4"
   sodipodi:docname="spotify.svg"
   width="500"
   height="500"
   inkscape:version="1.1 (c68e22c387, 2021-05-23)"
   inkscape:export-filename="C:\Users\User\AndroidStudioProjects\links\assets\logo\spotify.png"
   inkscape:export-xdpi="72"
   inkscape:export-ydpi="72"
   xmlns:inkscape="http://www.inkscape.org/namespaces/inkscape"
   xmlns:sodipodi="http://sodipodi.sourceforge.net/DTD/sodipodi-0.dtd"
   xmlns:xlink="http://www.w3.org/1999/xlink"
   xmlns="http://www.w3.org/2000/svg"
   xmlns:svg="http://www.w3.org/2000/svg">
  <defs
     id="defs8" />
  <sodipodi:namedview
     id="namedview6"
     pagecolor="#ffffff"
     bordercolor="#666666"
     borderopacity="1.0"
     inkscape:pageshadow="2"
     inkscape:pageopacity="0.0"
     inkscape:pagecheckerboard="0"
     showgrid="false"
     inkscape:zoom="1"
     inkscape:cx="253"
     inkscape:cy="96.5"
     inkscape:window-width="1920"
     inkscape:window-height="1017"
     inkscape:window-x="-8"
     inkscape:window-y="-8"
     inkscape:window-maximized="1"
     inkscape:current-layer="svg4"
     width="497px" />
  <text
     xml:space="preserve"
     style="font-style:normal;font-variant:normal;font-weight:normal;font-stretch:normal;font-size:63.9649px;line-height:1.25;font-family:'Comic Sans MS';-inkscape-font-specification:'Comic Sans MS, Normal';font-variant-ligatures:normal;font-variant-caps:normal;font-variant-numeric:normal;font-variant-east-asian:normal;word-spacing:0px;display:inline;opacity:0.65;fill:#000000;fill-opacity:1;stroke:none"
     id="text1948"
     inkscape:label="text"
     transform="rotate(-136.10969,249.39529,246.42341)"><textPath
       xlink:href="#path37683"
       id="textPath11641"><tspan
         id="tspan1946"
         style="font-style:normal;font-variant:normal;font-weight:normal;font-stretch:normal;font-size:63.9649px;font-family:'Comic Sans MS';-inkscape-font-specification:'Comic Sans MS, Normal';font-variant-ligatures:normal;font-variant-caps:normal;font-variant-numeric:normal;font-variant-east-asian:normal;fill:#000000;fill-opacity:1"
         rotate="0 0 0 0 0 0 0 0">Spotify</tspan></textPath></text>
  <ellipse
     style="display:none;opacity:0.65;fill:#000000;fill-opacity:1;stroke-width:0.58825"
     id="path37683"
     cx="246.33562"
     cy="253.67479"
     inkscape:label="text path"
     rx="150.00056"
     ry="149.99944"
     transform="matrix(0.99989034,-0.01480872,0.01455167,0.99989412,0,0)" />
  <path
     fill="currentColor"
     d="m 250,125 c -69.00201,0 -125,55.99799 -125,125 0,69.00201 55.99799,125 125,125 69.00201,0 125,-55.99799 125,-125 0,-69.00201 -55.99799,-125 -125,-125 z m 50.75605,183.92137 c -2.11694,0 -3.42742,-0.65524 -5.39314,-1.81451 -31.45162,-18.95162 -68.04436,-19.75807 -104.18346,-12.3488 -1.96574,0.50404 -4.5363,1.31049 -5.99799,1.31049 -4.88912,0 -7.96371,-3.88105 -7.96371,-7.9637 0,-5.19155 3.07459,-7.6613 6.85484,-8.46775 41.28023,-9.12299 83.46773,-8.31654 119.45564,13.20564 3.07459,1.96573 4.88912,3.72985 4.88912,8.31653 0,4.5867 -3.57864,7.7621 -7.6613,7.7621 z m 13.55847,-33.06451 c -2.62097,0 -4.38508,-1.15927 -6.1996,-2.11694 -31.50201,-18.64919 -78.47782,-26.15927 -120.2621,-14.81855 -2.41935,0.65524 -3.72983,1.31049 -5.99798,1.31049 -5.39314,0 -9.77822,-4.38509 -9.77822,-9.77822 0,-5.39315 2.62097,-8.97179 7.8125,-10.43348 14.01209,-3.93145 28.32661,-6.85484 49.29435,-6.85484 32.71169,0 64.31452,8.11492 89.21371,22.93347 4.08267,2.41936 5.69556,5.54436 5.69556,9.92944 -0.0505,5.44354 -4.28427,9.82863 -9.77822,9.82863 z m 15.62499,-38.40726 c -2.62096,0 -4.23386,-0.65525 -6.50201,-1.96573 -35.88709,-21.42136 -100.0504,-26.5625 -141.58266,-14.96976 -1.81452,0.50404 -4.08265,1.31049 -6.50202,1.31049 -6.65322,0 -11.74395,-5.19153 -11.74395,-11.89515 0,-6.85485 4.23388,-10.7359 8.77017,-12.04638 17.74193,-5.19153 37.6008,-7.6613 59.22378,-7.6613 36.79436,0 75.35283,7.6613 103.52823,24.09275 3.93145,2.26814 6.50201,5.39314 6.50201,11.39113 0,6.85484 -5.54435,11.74395 -11.69355,11.74395 z"
     id="path2"
     style="display:inline;opacity:0.65;fill:#000000;fill-opacity:1;stroke-width:0.504032"
     inkscape:label="icon" />
</svg>
